<svg width="251" height="48" viewBox="0 0 251 48" fill="none" xmlns="http://www.w3.org/2000/svg">
<path fill-rule="evenodd" clip-rule="evenodd" d="M38.0581 0.702148H23.2877C10.4349 0.702148 0 11.1414 0 23.9998C0 28.8127 1.462 33.2867 3.96557 37.0012L9.15108 30.4266C9.39438 30.1181 9.84169 30.0653 10.1502 30.3086L13.5015 32.9518C13.8099 33.1951 13.8628 33.6424 13.6195 33.9509L7.77086 41.3662C11.8911 45.0538 17.3296 47.2971 23.2877 47.2971H38.0581V20.2167L33.3644 26.1678C33.1211 26.4762 32.6738 26.5291 32.3653 26.2858L29.014 23.6425C28.7055 23.3992 28.6527 22.9519 28.896 22.6435L38.0581 11.027V0.702148ZM25.0898 19.9938C24.7813 19.7505 24.334 19.8033 24.0907 20.1118L13.9583 32.9584C13.715 33.2669 13.7678 33.7142 14.0763 33.9575L17.4276 36.6007C17.7361 36.844 18.1834 36.7912 18.4267 36.4827L28.5591 23.6361C28.8024 23.3276 28.7496 22.8803 28.4411 22.637L25.0898 19.9938Z" fill="url(#paint0_linear_2079_11004)"/>
<path d="M244.649 38.519L242.322 34.7502C240.794 35.2712 239.092 35.5317 237.268 35.5317C229.383 35.5317 223.982 30.582 223.982 22.5061C223.982 14.4302 229.383 9.48047 237.268 9.48047C245.153 9.48047 250.554 14.4302 250.554 22.5061C250.554 27.4211 248.557 31.1725 245.222 33.3608L247.341 36.8517L244.649 38.519ZM227.612 22.5061C227.612 28.6368 231.624 32.1451 237.268 32.1451C238.397 32.1451 239.474 32.0061 240.446 31.7283L237.407 26.7959L240.22 25.0765L243.399 30.3215C245.604 28.7063 246.942 26.0317 246.942 22.5061C246.942 16.3754 242.912 12.8671 237.268 12.8671C231.624 12.8671 227.612 16.3754 227.612 22.5061Z" fill="#2A415D"/>
<path d="M214.535 34.9587V10.0537H218.095V34.9587H214.535Z" fill="#2A415D"/>
<path d="M189.732 34.9587V10.0537H208.489V13.4404H193.293V20.4569H207.169V23.8609H193.293V31.5721H208.489V34.9587H189.732Z" fill="#2A415D"/>
<path d="M161.704 34.9587V10.0537H175.424C179.905 10.0537 183.431 12.9715 183.431 17.487C183.431 21.1863 181.016 24.2777 177.404 25.1982L183.483 34.9587H179.245L173.392 25.4587H165.264V34.9587H161.704ZM165.264 22.072H174.729C177.491 22.072 179.801 20.37 179.801 17.6607C179.801 15.0556 177.63 13.4404 175.059 13.4404H165.264V22.072Z" fill="#2A415D"/>
<path d="M142.511 35.5317C134.626 35.5317 129.225 30.582 129.225 22.5061C129.225 14.4302 134.626 9.48047 142.511 9.48047C150.396 9.48047 155.797 14.4302 155.797 22.5061C155.797 30.582 150.396 35.5317 142.511 35.5317ZM132.854 22.5061C132.854 28.6368 136.866 32.1451 142.511 32.1451C148.155 32.1451 152.184 28.6368 152.184 22.5061C152.184 16.3754 148.155 12.8671 142.511 12.8671C136.866 12.8671 132.854 16.3754 132.854 22.5061Z" fill="#2A415D"/>
<path d="M113.628 34.9587V13.4404H103.294V10.0537H127.522V13.4404H117.171V34.9587H113.628Z" fill="#2A415D"/>
<path d="M90.9647 35.5317C84.9729 35.5317 80.3357 32.6314 79.2068 27.3864L82.8714 26.7438C83.705 30.5125 86.8312 32.3187 91.1904 32.3187C95.2197 32.3187 97.7727 30.773 97.7727 28.1679C97.7727 25.1112 94.2818 24.5902 90.2352 24.0171C85.1986 23.305 80.0058 22.4714 80.0058 16.9485C80.0058 11.7556 84.6081 9.48047 90.0789 9.48047C96.036 9.48047 99.8395 12.1898 100.76 16.5664L97.3385 17.4348C96.5744 14.2392 93.8129 12.7108 89.8531 12.7108C86.2407 12.7108 83.6008 13.9787 83.6008 16.6533C83.6008 19.7968 87.248 20.2831 91.2425 20.8041C96.0707 21.4293 101.403 22.1414 101.403 27.6816C101.403 32.8745 96.6959 35.5317 90.9647 35.5317Z" fill="#2A415D"/>
<path d="M62.5681 35.5317C54.6311 35.5317 49.2993 30.7557 49.2993 22.6798C49.2993 14.5518 54.7353 9.48047 62.7591 9.48047C68.7162 9.48047 73.2839 12.2766 74.5343 17.0353L71.1477 17.8516C70.1403 14.5518 66.8579 12.8671 62.7939 12.8671C56.7152 12.8671 52.9291 16.7054 52.9291 22.5756C52.9291 28.5847 56.8716 32.1451 62.7244 32.1451C67.1879 32.1451 70.3661 30.061 71.2171 26.4659L74.6906 27.4385C73.4923 32.4056 68.9941 35.5317 62.5681 35.5317Z" fill="#2A415D"/>
<defs>
<linearGradient id="paint0_linear_2079_11004" x1="19.0292" y1="47.2971" x2="19.0292" y2="0.702148" gradientUnits="userSpaceOnUse">
<stop stop-color="#76C8FF"/>
<stop offset="0.5" stop-color="#2EA1FF"/>
<stop offset="1" stop-color="#006CBF"/>
</linearGradient>
</defs>
</svg>
